<svg xmlns="http://www.w3.org/2000/svg" viewBox="0 0 48 48"><title>page-layout-glyph</title><g id="page-layout"><g id="page-layout-2" data-name="page-layout"><path d="M40.74,2V46H7.26V2ZM38.67,4.29H9.33V43.7H38.67Z" fill="#231f20"/><rect x="12.05" y="24.61" width="9.43" height="1" fill="#231f20"/><rect x="12.05" y="26.97" width="9.43" height="1" fill="#231f20"/><rect x="12.05" y="29.33" width="9.43" height="1" fill="#231f20"/><rect x="12.05" y="31.69" width="9.43" height="1" fill="#231f20"/><rect x="12.05" y="35.59" width="11.62" height="5.61" fill="#231f20"/><rect x="24.23" y="24.65" width="11.72" height="8.01" fill="#231f20"/><rect x="26.36" y="40.27" width="9.59" height="1" fill="#231f20"/><rect x="26.36" y="37.91" width="9.59" height="1" fill="#231f20"/><rect x="26.36" y="35.55" width="9.59" height="1" fill="#231f20"/><rect x="12.05" y="18.37" width="23.9" height="1" fill="#231f20"/><rect x="12.05" y="21.01" width="23.9" height="1" fill="#231f20"/><rect x="12.05" y="16" width="23.9" height="1" fill="#231f20"/><rect x="12.05" y="6.8" width="23.9" height="6.83" fill="#231f20"/></g></g></svg>